<?xml version="1.0" encoding="utf-8"?>
<!-- Generator: Adobe Illustrator 25.0.1, SVG Export Plug-In . SVG Version: 6.00 Build 0)  -->
<svg version="1.0" id="Layer_1" xmlns="http://www.w3.org/2000/svg" xmlns:xlink="http://www.w3.org/1999/xlink" x="0px" y="0px"
	 viewBox="0 0 245 149" style="enable-background:new 0 0 245 149;" xml:space="preserve">
<style type="text/css">
	.st0{fill:url(#SVGID_1_);}
	.st1{fill:url(#Path-2_1_);}
	.st2{fill:none;}
</style>
<g id="home-page">
	<g id="video-hover">
		<g id="White-header--logged-out">
			<g id="header">
				<g id="logo">
					<path d="M89.6,65c0-1.1,0.9-2,2-2c0,0,0,0,0.1,0h7.2c4.5,0,8.2,3.7,8.2,8.2s-3.7,8.2-8.2,8.2c0,0,0,0,0,0H94v4.4
						c0,1.2-1,2.2-2.2,2.2h-0.1c-1.2,0-2.2-1-2.2-2.2V65z M94,67v8.3h4.5c2.3,0.1,4.3-1.7,4.4-4c0.1-2.3-1.7-4.3-4-4.4
						c-0.1,0-0.3,0-0.4,0H94z"/>
					<path d="M111.6,65c0-1.1,0.9-2,2-2h6.7c5.5,0,8.7,3.2,8.7,8.1c0.1,2.8-1.4,5.3-3.8,6.7l2.8,5c0.7,1,0.4,2.3-0.6,3
						s-2.3,0.4-3-0.6c-0.1-0.1-0.1-0.2-0.2-0.4l-3-5.8H116v4.8c0,1.2-1,2.2-2.2,2.2l0,0c-1.2,0-2.2-1-2.2-2.2L111.6,65z M116,67.1v8
						h4c3.6,0,4.7-1.9,4.7-4.2s-1.4-3.8-4.7-3.8L116,67.1z"/>
					<path d="M133.1,74.5c0-6.5,5.3-11.8,11.8-11.7s11.8,5.3,11.7,11.8c0,6.5-5.3,11.8-11.8,11.7c-3.1,0-6.1-1.3-8.3-3.5
						C134.4,80.6,133.1,77.6,133.1,74.5z M152.3,74.5c0-4.1-3.4-7.5-7.5-7.4c-4.1,0-7.5,3.4-7.4,7.5c0,4.1,3.4,7.5,7.5,7.4
						c2,0,3.9-0.8,5.3-2.2C151.6,78.4,152.4,76.5,152.3,74.5z"/>
					<path id="Path" d="M164.8,63c0.7,0,1.4,0.3,1.8,0.9l6.3,8.7l6.3-8.5c0.5-0.7,1.3-1.1,2.2-1.1c0.7,0,1.4,0.3,1.9,0.8
						c0.5,0.5,0.8,1.3,0.8,2v18.1c0,1.2-1,2.2-2.2,2.2h-0.1c-1.2,0-2.2-1-2.2-2.2V70.1l-5.5,7.4c-0.6,0.8-1.7,1-2.5,0.4
						c-0.1-0.1-0.3-0.2-0.4-0.4l-5.4-7.3v13.7c0,1.2-1,2.2-2.2,2.2h-0.1c-0.6,0-1.1-0.2-1.5-0.6c-0.4-0.4-0.6-1-0.6-1.5V66.2
						C161.5,64.4,163,63,164.8,63C164.8,63,164.8,63,164.8,63z"/>
					<path d="M188.9,74.5c0-6.5,5.3-11.8,11.8-11.7c6.5,0,11.8,5.3,11.7,11.8c0,6.5-5.3,11.8-11.8,11.7c-3.1,0-6.1-1.3-8.3-3.5
						C190.2,80.6,188.9,77.6,188.9,74.5z M208.1,74.5c0-4.1-3.4-7.4-7.5-7.4c-4.1,0-7.4,3.4-7.4,7.5c0,4.1,3.4,7.4,7.4,7.4
						C204.8,82,208.2,78.6,208.1,74.5C208.1,74.5,208.1,74.5,208.1,74.5z"/>
					
						<linearGradient id="SVGID_1_" gradientUnits="userSpaceOnUse" x1="-264.4492" y1="185.6046" x2="-262.8992" y2="185.6046" gradientTransform="matrix(27.09 0 0 31.75 7196.48 -5818.4399)">
						<stop  offset="0" style="stop-color:#FF3176"/>
						<stop  offset="1" style="stop-color:#FF7369"/>
					</linearGradient>
					<path class="st0" d="M72.5,70.6l-33-20.1c-2.1-1.3-4.9-0.6-6.2,1.5c-0.4,0.7-0.7,1.5-0.7,2.4v23.2c-0.1,2.5,1.8,4.6,4.3,4.8
						c2.5,0.1,4.6-1.8,4.8-4.3c0-0.1,0-0.3,0-0.4V62.5l5.4,3.3l10.8,6.6l0,0l3.7,2.1l-8.6,5.4l-3.7,2.3c-2.2,1.2-3,4-1.8,6.2
						s4,3,6.2,1.8c0.2-0.1,0.3-0.2,0.5-0.3l18.5-11.6c2.1-1.3,2.8-4.1,1.5-6.3C73.6,71.5,73.1,71,72.5,70.6z M37.3,89.7
						c-2.6,0-4.8,2.1-4.7,4.8s2.1,4.8,4.8,4.7c2.6,0,4.7-2.1,4.8-4.8C42.1,91.8,39.9,89.7,37.3,89.7C37.3,89.7,37.3,89.7,37.3,89.7
						L37.3,89.7z"/>
					
						<linearGradient id="Path-2_1_" gradientUnits="userSpaceOnUse" x1="-229.4036" y1="257.1738" x2="-229.2936" y2="256.8638" gradientTransform="matrix(6.94 0 0 4.25 1644.4401 -1023.87)">
						<stop  offset="0" style="stop-color:#FFFFFF"/>
						<stop  offset="1" style="stop-color:#000000"/>
					</linearGradient>
					<polygon id="Path-2" class="st1" points="57.8,72.3 47,65.7 47,65.7 					"/>
				</g>
			</g>
		</g>
	</g>
</g>
<rect x="27" y="45" class="st2" width="191" height="59"/>
</svg>
