<?xml version="1.0" encoding="utf-8"?>
<!-- Generator: Adobe Illustrator 25.0.1, SVG Export Plug-In . SVG Version: 6.00 Build 0)  -->
<svg version="1.0" id="katman_1" xmlns="http://www.w3.org/2000/svg" xmlns:xlink="http://www.w3.org/1999/xlink" x="0px" y="0px"
	 viewBox="0 0 1042.4 669.5" style="enable-background:new 0 0 1042.4 669.5;" xml:space="preserve">
<style type="text/css">
	.st0{fill:#747679;}
	.st1{fill:#BED600;}
	.st2{fill:#FFFFFF;}
</style>
<g>
	<path class="st0" d="M526.9,260.7h23.7V282h-23.7V260.7z M526.9,294.4h23.7V384h-23.7C526.9,384,526.9,294.4,526.9,294.4z
		 M586.8,308.7h0.5c5.4-10.1,11.5-15.4,22-15.4c2.6,0,4.2,0.2,5.6,0.7v20.8h-0.5c-15.5-1.6-26.7,6.6-26.7,25.5V384h-23.7v-89.6h22.9
		C586.8,294.4,586.8,308.7,586.8,308.7z M661.1,260.7h23.7V282h-23.7V260.7z M661.1,294.4h23.7V384h-23.7L661.1,294.4L661.1,294.4z
		 M721.4,306.6h0.5c6.1-9.6,14.3-14.7,26.5-14.7c18.5,0,30.9,14,30.9,33.5V384h-23.7v-55c0-9.6-5.6-16.4-15.5-16.4
		c-10.5,0-18.2,8.4-18.2,20.6V384h-23.7v-89.6h23.2L721.4,306.6L721.4,306.6z M789.1,339.1c0-26.5,18-47.1,44.2-47.1
		c28.8,0,44.2,22,44.2,53.9h-64.9c1.7,13.8,9.4,22.3,22.9,22.3c9.3,0,14.7-4.2,17.3-11h23.4c-3.3,15.9-17.5,29.3-40.5,29.3
		C805.9,386.6,789.1,365.8,789.1,339.1L789.1,339.1z M812.9,329.5h39.8c-0.7-11.3-8.2-19.2-19-19.2
		C821.1,310.3,814.9,317.8,812.9,329.5z M882.9,355h22c1.6,10.3,8.9,14.8,19.6,14.8c10.5,0,16.4-4,16.4-10.3
		c0-8.6-11.3-9.4-23.6-11.9c-16.1-3.1-31.8-7.5-31.8-27.1c0-19.4,16.1-28.6,36.5-28.6c23.6,0,36.7,11.7,38.4,29.7H939
		c-1-9.6-7.2-13.1-17.3-13.1c-9.3,0-15.4,3.5-15.4,10c0,7.7,11.9,8.4,24.6,11c15,3.1,31.6,7.3,31.6,28.3c0,18-15.4,28.8-37.7,28.8
		C898.8,386.6,884.3,374,882.9,355L882.9,355z M470.9,260.7h-27.6l-50,123.2h28.3l9.3-25.3h51l9.4,25.3h28.5L470.9,260.7
		L470.9,260.7z M437.6,337.9l18.3-52.4l18.9,52.4L437.6,337.9L437.6,337.9z M624.1,260.7h23.7V384h-23.7V260.7z"/>
</g>
<path class="st1" d="M362.5,334.7c0,78.3-63.4,141.7-141.7,141.7C142.5,476.4,79,413,79,334.7s63.5-141.8,141.8-141.8
	C299.1,192.9,362.5,256.4,362.5,334.7"/>
<path class="st2" d="M210.4,260.7c-22.3,0-36.8,1.2-47.3,5.1c-17.6,6.9-29.8,21.2-29.8,40.2c0,15.7,7.3,27.1,28.5,40.3
	c22.6,13.7,27.2,18.3,27.2,26.5c0,9-8.9,19.4-31.7,19.4c-8,0-20-1.1-27.6-3l-3.7-0.9c-2,5.5-6.7,18.4-8.1,23.1l3.6,1.1
	c6.9,2.2,23.3,3.9,35,3.9c39,0,62.3-23.6,62.3-48.2c0-15.2-6.9-26.7-30.1-41.2c-11.7-7.2-17.6-11.8-21.2-15.4
	c-2.9-3.8-3.3-6.6-3.3-9.5c0-2.8,0.6-6.1,2.5-8.5c2-2.9,5.7-4.8,10.7-6.4c5.1-1.7,14.7-1.7,29.5-1.7h13.8l9.9-24.6L210.4,260.7
	L210.4,260.7z M314.7,260.7h-69.3l-9.9,24.6h23c15.5,0,18.4-0.3,22.3-0.3c-5.6,12.8-39.4,98.9-39.4,98.9H270
	c0,0,42.8-107.2,47.3-118.4C318.6,263,318,260.7,314.7,260.7L314.7,260.7z"/>
</svg>
